<?xml version="1.0" encoding="UTF-8"?>
<!DOCTYPE svg PUBLIC "-//W3C//DTD SVG 1.1//EN" "http://www.w3.org/Graphics/SVG/1.1/DTD/svg11.dtd">
<!-- Creator: CorelDRAW X7 -->
<svg xmlns="http://www.w3.org/2000/svg" xml:space="preserve" width="94.0345mm" height="32.6866mm" version="1.1" style="shape-rendering:geometricPrecision; text-rendering:geometricPrecision; image-rendering:optimizeQuality; fill-rule:evenodd; clip-rule:evenodd"
viewBox="0 0 75350 26192"
 xmlns:xlink="http://www.w3.org/1999/xlink">
 <defs>
  <style type="text/css">
   <![CDATA[
    .fil0 {fill:#373435}
    .fil1 {fill:#373435;fill-rule:nonzero}
   ]]>
  </style>
 </defs>
 <g id="Capa_x0020_1">
  <metadata id="CorelCorpID_0Corel-Layer"/>
  <g id="_2560498158432">
   <polygon class="fil0" points="11318,12709 6426,10250 11318,7425 16210,10250 "/>
   <polygon class="fil0" points="11318,5649 6426,2824 11318,0 16210,2824 "/>
   <polygon class="fil0" points="22677,6544 17785,3719 17785,9368 22677,12192 "/>
   <polygon class="fil0" points="0,6544 4892,3719 4892,9368 0,12192 "/>
   <polygon class="fil0" points="10954,13438 6426,10250 6426,15898 11318,18723 "/>
   <polygon class="fil0" points="4892,16808 0,13984 0,19633 4892,22457 "/>
   <polygon class="fil0" points="17785,16808 22677,13984 22677,19633 17786,22457 "/>
   <polygon class="fil0" points="11318,18723 11683,13438 16210,10250 16210,15898 "/>
   <polygon class="fil0" points="6426,23352 11346,26192 16210,23352 11318,20527 "/>
  </g>
  <path class="fil1" d="M29092 15743l3089 0c944,0 1662,-92 2175,-410 739,-452 1170,-1273 1170,-2268 0,-1642 -1047,-2617 -3027,-2617l-3407 0 0 5295zm1232 -995l0 -3356 2185 0c1160,0 1745,575 1745,1652 0,1314 -780,1704 -2340,1704l-1590 0zm8711 995l1057 0 0 -1970 2360 -2370 -1241 0 -1570 1621 -1550 -1621 -1426 0 2370 2390 0 1950zm4444 0l964 0 0 -2924 3674 2924 728 0 0 -4340 -954 0 0 2883 -3684 -2883 -728 0 0 4340zm8701 -1744l975 -1806 1016 1806 -1991 0zm-2052 1744l1057 0 544 -954 2873 0 544 954 1190 0 -2617 -4340 -1016 0 -2575 4340zm7665 0l995 0 0 -3273c0,-175 -10,-349 -30,-565 82,206 195,380 318,544l1990 2658 247 0 1990 -2647c93,-124 195,-319 308,-555 -31,277 -41,462 -41,565l0 3273 1139 0 0 -5295 -985 0 -2442 3202 -2494 -3202 -995 0 0 5295zm9122 0l1057 0 0 -4340 -1057 0 0 4340zm2545 0l1252 0 1529 -1621 1662 1621 1447 0 -2442 -2350 1980 -1990 -1221 0 -1375 1405 -1457 -1405 -1416 0 2186 2113 -2145 2227z"/>
 </g>
</svg>
