<?xml version="1.0" encoding="UTF-8"?>
<!DOCTYPE svg PUBLIC "-//W3C//DTD SVG 1.1//EN" "http://www.w3.org/Graphics/SVG/1.1/DTD/svg11.dtd">
<!-- Creator: CorelDRAW X7 -->
<svg xmlns="http://www.w3.org/2000/svg" xml:space="preserve" width="94.0345mm" height="32.6866mm" version="1.1" style="shape-rendering:geometricPrecision; text-rendering:geometricPrecision; image-rendering:optimizeQuality; fill-rule:evenodd; clip-rule:evenodd"
viewBox="0 0 9106 3165"
 xmlns:xlink="http://www.w3.org/1999/xlink">
 <defs>
  <style type="text/css">
   <![CDATA[
    .fil0 {fill:none}
    .fil1 {fill:#00AFEF}
    .fil2 {fill:#0077BD}
    .fil3 {fill:#3E4095}
    .fil4 {fill:#3E4095;fill-rule:nonzero}
   ]]>
  </style>
 </defs>
 <g id="Capa_x0020_1">
  <metadata id="CorelCorpID_0Corel-Layer"/>
  <g id="_2560388450352">
   <g>
    <polygon class="fil0" points="777,1921 777,1239 1368,897 1368,1580 "/>
    <polygon class="fil1" points="1368,1536 777,1239 1368,897 1959,1239 "/>
    <polygon class="fil2" points="1368,683 777,341 1368,0 1959,341 "/>
    <polygon class="fil0" points="1959,1239 1368,897 1368,1580 1959,1921 "/>
    <polygon class="fil3" points="2741,791 2149,449 2149,1132 2741,1474 "/>
    <polygon class="fil3" points="0,791 591,449 591,1132 0,1474 "/>
    <polygon class="fil2" points="1324,1624 777,1239 777,1921 1368,2263 "/>
    <polygon class="fil2" points="591,2031 0,1690 0,2373 591,2714 "/>
    <polygon class="fil2" points="2149,2031 2741,1690 2741,2373 2149,2714 "/>
    <polygon class="fil3" points="1368,2263 1412,1624 1959,1239 1959,1921 "/>
    <polygon class="fil0" points="777,1921 1371,2265 1959,1921 1368,1580 "/>
    <polygon class="fil3" points="777,2822 1371,3165 1959,2822 1368,2481 "/>
   </g>
   <path class="fil4" d="M3516 1903l373 0c114,0 201,-12 263,-50 89,-55 142,-154 142,-274 0,-198 -127,-316 -366,-316l-412 0 0 640zm149 -121l0 -405 264 0c140,0 211,69 211,199 0,159 -95,206 -283,206l-192 0zm1053 121l127 0 0 -238 286 -287 -150 0 -190 196 -187 -196 -173 0 287 289 0 236zm537 0l116 0 0 -354 444 354 88 0 0 -525 -115 0 0 349 -445 -349 -88 0 0 525zm1051 -211l118 -218 123 218 -241 0zm-248 211l128 0 66 -116 347 0 66 116 143 0 -316 -525 -123 0 -311 525zm927 0l120 0 0 -396c0,-21 -1,-42 -4,-68 10,25 24,46 39,66l240 321 30 0 241 -320c11,-15 23,-39 37,-67 -4,33 -5,56 -5,68l0 396 137 0 0 -640 -119 0 -295 387 -301 -387 -120 0 0 640zm1102 0l128 0 0 -525 -128 0 0 525zm308 0l151 0 185 -196 201 196 174 0 -295 -284 240 -241 -148 0 -166 170 -176 -170 -171 0 264 256 -259 269z"/>
  </g>
 </g>
</svg>
