<?xml version="1.0" encoding="UTF-8"?>
<!DOCTYPE svg PUBLIC "-//W3C//DTD SVG 1.1//EN" "http://www.w3.org/Graphics/SVG/1.1/DTD/svg11.dtd">
<!-- Creator: CorelDRAW X7 -->
<svg xmlns="http://www.w3.org/2000/svg" xml:space="preserve" width="19.5818mm" height="22.6167mm" version="1.1" style="shape-rendering:geometricPrecision; text-rendering:geometricPrecision; image-rendering:optimizeQuality; fill-rule:evenodd; clip-rule:evenodd"
viewBox="0 0 227 263"
 xmlns:xlink="http://www.w3.org/1999/xlink">
 <defs>
  <style type="text/css">
   <![CDATA[
    .fil0 {fill:#00AFEF}
    .fil1 {fill:#0077BD}
    .fil2 {fill:#3E4095}
   ]]>
  </style>
 </defs>
 <g id="Capa_x0020_1">
  <metadata id="CorelCorpID_0Corel-Layer"/>
  <g id="_2560388420080">
   <polygon class="fil0" points="114,127 64,103 114,74 163,103 "/>
   <polygon class="fil1" points="114,57 64,28 114,0 163,28 "/>
   <polygon class="fil2" points="227,66 178,37 178,94 227,122 "/>
   <polygon class="fil2" points="0,66 49,37 49,94 0,122 "/>
   <polygon class="fil1" points="110,135 64,103 64,159 114,188 "/>
   <polygon class="fil1" points="49,169 0,140 0,197 49,225 "/>
   <polygon class="fil1" points="178,169 227,140 227,197 178,225 "/>
   <polygon class="fil2" points="114,188 117,135 163,103 163,159 "/>
   <polygon class="fil2" points="64,234 114,263 163,234 114,206 "/>
  </g>
 </g>
</svg>
