<?xml version="1.0" encoding="UTF-8"?>
<!DOCTYPE svg PUBLIC "-//W3C//DTD SVG 1.1//EN" "http://www.w3.org/Graphics/SVG/1.1/DTD/svg11.dtd">
<!-- Creator: CorelDRAW X7 -->
<svg xmlns="http://www.w3.org/2000/svg" xml:space="preserve" width="49.9707mm" height="40.8407mm" version="1.1" style="shape-rendering:geometricPrecision; text-rendering:geometricPrecision; image-rendering:optimizeQuality; fill-rule:evenodd; clip-rule:evenodd"
viewBox="0 0 1867 1526"
 xmlns:xlink="http://www.w3.org/1999/xlink">
 <defs>
  <style type="text/css">
   <![CDATA[
    .str4 {stroke:#373435;stroke-width:44.8342;stroke-linecap:round;stroke-linejoin:round}
    .str2 {stroke:#373435;stroke-width:44.8342;stroke-linecap:round;stroke-linejoin:round}
    .str1 {stroke:#373435;stroke-width:44.8342;stroke-linecap:round;stroke-linejoin:round}
    .str0 {stroke:#373435;stroke-width:44.8342;stroke-linecap:round;stroke-linejoin:round}
    .str6 {stroke:#373435;stroke-width:44.8342;stroke-linecap:round;stroke-linejoin:round}
    .str3 {stroke:#373435;stroke-width:44.8342;stroke-linecap:round;stroke-linejoin:round}
    .str5 {stroke:#373435;stroke-width:44.8342;stroke-linecap:round;stroke-linejoin:round}
    .fil0 {fill:none}
    .fil1 {fill:#373435;fill-rule:nonzero}
   ]]>
  </style>
 </defs>
 <g id="Capa_x0020_1">
  <metadata id="CorelCorpID_0Corel-Layer"/>
  <g id="_2560393224976">
   <g>
    <polygon class="fil0 str0" points="922,535 725,436 922,322 1119,436 "/>
    <polygon class="fil0 str1" points="922,250 725,136 922,22 1119,136 "/>
    <polygon class="fil0 str2" points="1381,287 1183,173 1183,401 1381,515 "/>
    <polygon class="fil0 str3" points="465,287 663,173 663,401 465,515 "/>
    <polygon class="fil0 str0" points="907,565 725,436 725,664 922,778 "/>
    <polygon class="fil0 str4" points="663,701 465,587 465,815 663,929 "/>
    <polygon class="fil0 str5" points="1183,701 1381,587 1381,815 1183,929 "/>
    <polygon class="fil0 str0" points="922,778 937,565 1119,436 1119,664 "/>
    <polygon class="fil0 str6" points="725,965 923,1080 1119,965 922,851 "/>
   </g>
   <path class="fil1" d="M0 1526l125 0c38,0 67,-4 87,-17 30,-18 48,-51 48,-91 0,-66 -43,-106 -123,-106l-137 0 0 214zm50 -40l0 -136 88 0c47,0 70,23 70,67 0,53 -31,69 -94,69l-64 0zm351 40l43 0 0 -80 95 -95 -50 0 -63 65 -63 -65 -57 0 95 96 0 79zm180 0l39 0 0 -118 148 118 29 0 0 -175 -38 0 0 116 -149 -116 -29 0 0 175zm351 -71l39 -72 41 72 -80 0zm-83 71l43 0 22 -39 116 0 22 39 48 0 -106 -175 -41 0 -104 175zm309 0l41 0 0 -132c0,-7 -1,-14 -2,-23 4,8 8,15 13,22l80 107 10 0 81 -107c4,-5 8,-12 12,-22 -1,11 -1,19 -1,23l0 132 46 0 0 -214 -40 0 -99 129 -100 -129 -41 0 0 214zm369 0l42 0 0 -175 -42 0 0 175zm102 0l51 0 62 -66 67 66 58 0 -99 -95 80 -80 -49 0 -55 56 -59 -56 -57 0 88 85 -87 90z"/>
  </g>
 </g>
</svg>
