<?xml version="1.0" encoding="UTF-8"?>
<!DOCTYPE svg PUBLIC "-//W3C//DTD SVG 1.1//EN" "http://www.w3.org/Graphics/SVG/1.1/DTD/svg11.dtd">
<!-- Creator: CorelDRAW X7 -->
<svg xmlns="http://www.w3.org/2000/svg" xml:space="preserve" width="20.7231mm" height="23.9348mm" version="1.1" style="shape-rendering:geometricPrecision; text-rendering:geometricPrecision; image-rendering:optimizeQuality; fill-rule:evenodd; clip-rule:evenodd"
viewBox="0 0 338 390"
 xmlns:xlink="http://www.w3.org/1999/xlink">
 <defs>
  <style type="text/css">
   <![CDATA[
    .fil0 {fill:#FEFEFE}
   ]]>
  </style>
 </defs>
 <g id="Capa_x0020_1">
  <metadata id="CorelCorpID_0Corel-Layer"/>
  <g id="_2560388459408">
   <polygon class="fil0" points="169,189 96,153 169,111 242,153 "/>
   <polygon class="fil0" points="169,84 96,42 169,0 242,42 "/>
   <polygon class="fil0" points="338,98 265,55 265,140 338,182 "/>
   <polygon class="fil0" points="0,98 73,55 73,140 0,182 "/>
   <polygon class="fil0" points="163,200 96,153 96,237 169,279 "/>
   <polygon class="fil0" points="73,250 0,208 0,293 73,335 "/>
   <polygon class="fil0" points="265,250 338,208 338,293 265,335 "/>
   <polygon class="fil0" points="169,279 174,200 242,153 242,237 "/>
   <polygon class="fil0" points="96,348 169,390 242,348 169,306 "/>
  </g>
 </g>
</svg>
